<?xml version="1.0" encoding="utf-8"?>
<!-- Generator: Adobe Illustrator 16.0.0, SVG Export Plug-In . SVG Version: 6.00 Build 0)  -->
<!DOCTYPE svg PUBLIC "-//W3C//DTD SVG 1.1//EN" "http://www.w3.org/Graphics/SVG/1.1/DTD/svg11.dtd">
<svg version="1.1" id="Layer_1" xmlns="http://www.w3.org/2000/svg" xmlns:xlink="http://www.w3.org/1999/xlink" x="0px" y="0px"
	 width="500.844px" height="138.367px" viewBox="0 0 500.844 138.367" enable-background="new 0 0 500.844 138.367"
	 xml:space="preserve">
<g>
	<path fill="#817870" d="M55.095,87.23c-2.444,6.58-10.434,15.32-20.303,13.912c-13.911-1.882-21.148-20.115-18.987-38.257
		c2.068-17.107,13.629-33.65,22.088-33.65c9.87,0,11.655,9.964,8.46,18.799c-1.692,4.794-4.7,7.332-7.802,6.58
		c-2.82-0.658-3.76-4.888-0.658-7.614c6.298-5.358,6.58-15.603-0.094-15.603c-7.144,0-14.381,15.791-16.355,31.958
		c-1.974,17.389,2.914,34.026,14.287,35.53c8.459,1.222,15.979-5.641,18.235-11.938C54.531,85.256,55.753,85.539,55.095,87.23z"/>
	<path fill="#817870" d="M68.255,73.414c-1.692,8.93-4.606,14.663-8.553,14.663c-9.023,0-7.614-20.867-5.264-29.326
		c0.282-0.658,0.282-0.752,0.094-0.658c-1.034,1.128-3.478,2.068-5.733,2.162c-0.846,4.323-1.786,8.741-3.008,12.501
		c-0.752,2.443-1.88,0.846-1.316-0.939c1.034-3.479,1.974-7.52,2.726-11.75c-1.222-0.47-2.068-3.854-2.068-6.392
		c0-3.29,1.88-6.579,3.102-6.861c2.068-0.376,2.35,3.948,1.88,8.647c2.538-0.188,6.768-1.504,9.023-3.76
		c1.128-1.222,1.504-1.598,1.504-1.504c1.128,1.222,1.316,2.256,0.282,3.666c-5.357,7.613-7.613,32.428-0.282,32.428
		c2.538,0,4.7-4.605,6.298-12.689C67.222,72.003,68.537,71.816,68.255,73.414z"/>
	<path fill="#817870" d="M78.784,65.518c-1.974,11.091-4.793,18.61-9.494,18.61c-4.136,0-7.237-7.144-7.237-11.562
		c0-5.357,0.47-16.542,0.658-18.986c0.188-1.034,6.392-0.658,6.297,0.282c-0.94,3.854-2.444,13.347-2.444,18.986
		c0,3.948-0.094,9.117,3.008,9.117c3.29,0,6.109-5.921,7.989-16.637C77.844,63.638,79.065,63.732,78.784,65.518z M63.933,41.643
		c0-1.691,3.008-4.699,4.042-4.699c0.939,0,2.162,1.786,2.162,3.008c0,1.222-2.162,4.136-3.196,4.136
		C66.188,44.087,63.933,43.053,63.933,41.643z"/>
	<path fill="#817870" d="M98.052,78.207c-1.691-0.846-3.29-1.598-5.075-2.066c-1.88,7.801-9.964,9.022-13.065,7.144
		c-3.76-2.443-2.162-8.365,3.76-9.306c1.692-0.283,3.102-0.283,4.512-0.188c0.282-5.64-4.042-10.998-7.426-15.791
		c-0.752,4.605-2.35,12.125-3.384,15.509c-0.752,2.443-1.88,0.939-1.315-0.939c1.034-3.479,2.819-12.219,3.478-16.448v-0.094
		c-1.504-2.256-2.538-4.417-2.632-6.392c-0.094-2.162,1.128-4.136,2.538-4.793c2.256-1.034,6.203-0.752,5.357,3.195l-1.41,5.64
		c2.632,4.888,11.186,10.81,9.964,20.397c0,0.188-0.094,0.28-0.094,0.47c1.786,0.562,3.572,1.409,5.358,2.35
		C99.838,77.455,99.65,78.958,98.052,78.207z M87.995,75.576c-1.504-0.188-3.102-0.188-4.793,0.094
		c-2.632,0.376-4.794,4.137-2.35,6.016C82.825,83.283,86.867,81.591,87.995,75.576z"/>
	<path fill="#817870" d="M153.697,45.591l-52.824,1.41c-0.376,4.324-0.658,8.929-0.658,14.475c0,11.279,0.752,19.174,5.357,19.174
		c4.606,0,7.144-6.768,9.212-18.61c0.376-1.692,1.504-1.692,1.222,0.188c-2.256,12.313-4.794,20.584-10.903,20.584
		c-6.204,0-9.587-8.084-9.587-20.96c0-4.605,0.188-9.587,0.376-14.757l-7.049,0.376c-1.128,0-2.914-1.598-2.914-3.008
		c0-0.564,3.29-1.316,4.229-1.316c0.564,0,2.444,0,5.922,0.188c0.47-8.742,1.316-15.697,1.504-16.637
		c0.188-0.94,6.109-0.658,6.109,0.282c0.094,0.752-1.504,6.298-2.632,16.355c5.546,0.188,41.733,0.939,52.543,1.222
		C155.014,44.557,154.825,45.497,153.697,45.591z"/>
	<path fill="#817870" d="M127.568,65.518c-1.974,11.091-4.794,18.61-9.493,18.61c-4.136,0-7.238-7.144-7.238-11.562
		c0-5.357,0.47-16.542,0.658-18.986c0.188-1.034,6.392-0.658,6.298,0.282c-0.94,3.854-2.444,13.347-2.444,18.986
		c0,3.948-0.094,9.117,3.008,9.117c3.29,0,6.11-5.921,7.99-16.637C126.628,63.638,127.851,63.732,127.568,65.518z M112.717,41.643
		c0-1.691,3.008-4.699,4.042-4.699c0.94,0,2.162,1.786,2.162,3.008c0,1.222-2.162,4.136-3.196,4.136
		C114.973,44.087,112.717,43.053,112.717,41.643z"/>
	<path fill="#817870" d="M154.074,74.354c-1.692,8.93-4.136,14.287-8.083,14.287c-4.606,0-8.742-9.494-6.58-23.123
		c1.598-10.434,1.786-12.313,0.658-12.313c-1.974,0-4.982,6.298-8.647,19.081c-0.564,1.974-0.752,4.136-0.752,5.45
		c0,3.572-0.188,5.828-1.88,5.828c-2.068,0-3.478-0.939-3.478-1.785c0-4.229,0.752-28.386,0.752-29.514s6.392-0.846,6.204,0.282
		c-0.188,1.88-1.974,12.031-1.974,15.604c0,0.846,0.376,2.443,0.846,0.846c3.666-13.723,6.674-17.953,9.587-17.953
		c3.008,0,6.016,3.008,4.136,14.193c-2.35,13.441-1.222,21.242,1.598,21.242c2.538,0,4.605-3.854,6.297-12.03
		C153.04,72.85,154.356,72.755,154.074,74.354z"/>
	<path fill="#817870" d="M173.813,83.47c-0.939,0.188-3.76-0.188-4.417-1.032c-0.94-1.129-1.598-3.196-1.88-5.547
		c-1.41,4.418-4.324,7.709-7.332,7.709c-6.109,0-9.682-7.332-8.554-15.135c1.504-11.185,10.151-17.106,15.509-17.106
		c4.888,0,7.238,1.315,7.238,2.162c0,2.444-5.452,1.974-5.64,1.786c-0.188-0.563-1.128-1.786-2.538-1.786
		c-4.605,0-8.271,6.392-9.211,14.569c-0.658,6.204-0.188,13.159,3.854,13.159c2.632,0,5.451-6.017,6.297-12.689
		c0.094-4.324,0.47-8.647,0.846-11.279c0.094-0.94,5.921-0.658,5.733,0.282c-1.034,6.486-2.162,22.652,1.316,22.652
		C175.13,81.214,175.6,83.189,173.813,83.47z"/>
	<path fill="#817870" d="M268.656,94.092c-0.471,3.102-11.844,11.749-21.713,9.117c-10.151-2.632-18.235-13.629-11.186-49.817
		c2.82-14.475,2.35-19.363-1.691-18.987c-4.042,0.376-10.434,16.354-12.125,31.112c-0.564,6.579-1.128,13.535-1.128,17.106
		c0,1.034-6.58,1.316-6.58,0c0-5.17,1.034-17.577,2.632-29.232c1.974-14.569,2.068-19.363-1.974-18.987
		c-4.136,0.376-11.279,16.825-11.655,31.77c0,0.188,0,0.282-0.094,0.47c-0.094,5.451-0.282,10.715-0.564,15.697
		c-0.094,1.222-6.58,1.315-6.485,0.095c0.563-12.597,2.256-26.508,2.256-38.633c0-7.426-3.196-11.186-7.144-10.245
		c-6.58,1.41-7.426,13.911,1.128,16.073c0.846,0.188,0.47,2.256-0.94,1.88c-8.365-1.974-10.339-17.201-0.376-19.551
		c6.392-1.41,12.313,4.982,12.313,11.75v10.057c2.35-12.219,7.426-21.149,11.843-21.619c4.793-0.47,9.023,4.229,8.553,15.227
		c3.008-8.835,6.956-14.757,10.622-15.227c5.545-0.47,10.622,6.016,7.99,21.055c-6.862,40.888,0,45.963,7.237,48.125
		c6.108,1.88,14.286-3.666,16.448-8.555C266.118,92.494,269.126,91.178,268.656,94.092z"/>
	<path fill="#817870" d="M256.721,81.686c0,2.442-3.478,3.478-4.604,3.478c-1.034,0-2.538-1.222-2.538-2.914
		c0-2.538,3.479-4.794,4.605-4.794S256.721,79.241,256.721,81.686z"/>
	<path fill="#817870" d="M334.925,89.957c-2.538,3.947-8.177,5.827-11.655,4.229c-5.922-2.631-17.481-23.593-25.283-29.043
		c-0.94,15.133-13.535,20.961-21.055,17.67c-12.502-5.451-1.035-24.626,10.526-13.159c0.94,0.939,0,1.88-0.752,1.786
		c0,0-0.376-0.281-0.376-0.375c-9.211-9.212-15.321,4.98-7.051,8.929c5.923,2.726,15.51-0.563,16.449-14.757
		c-3.76,0-7.896-0.846-11.938-2.444c-1.314-0.564-0.939-1.504,0.096-1.034c3.288,1.128,6.578,1.786,9.868,1.974
		c-0.376-0.846-0.471-3.666,1.69-3.76h0.472c-0.095-10.245-1.315-22.371-1.881-23.687c-0.47-1.222,4.137-0.846,4.137,0.282
		c0,2.162,0.188,13.911,0,24.25c0.847,0.47,3.947,1.316,5.075,2.256c8.741-1.786,13.441-7.801,13.441-16.825
		c0-9.211-8.741-14.569-19.834-14.193c-13.816,0.47-22.651,7.896-22.746,15.697c-0.094,8.459,10.246,10.622,17.296,8.271
		c1.504-0.47,2.35,0.564,0.752,1.128c-10.058,3.384-20.304-0.188-20.304-9.494c0.095-9.305,10.998-18.423,25.285-18.893
		c14.381-0.47,25.189,6.485,25.189,17.013c0,8.46-7.521,16.167-17.766,18.611c8.271,8.365,17.295,24.908,21.432,26.788
		c2.819,1.223,5.827,0.846,7.895-2.35C335.489,86.479,336.993,86.855,334.925,89.957z"/>
	<path fill="#817870" d="M350.343,58.468c-1.88,0.658-3.384,1.128-5.452,1.316c0.282,1.974,0.376,4.512,0.376,7.425
		c0,8.646-6.484,16.919-12.03,16.919c-7.051,0-10.339-5.827-9.682-13.347c0.657-8.178,4.323-13.817,8.93-14.757
		c1.504-0.376,1.315,0.94,0.281,1.504c-1.128,0.564-3.008,4.7-3.76,13.253c-0.563,6.673,1.504,11.091,4.794,11.091
		c3.479,0,7.521-6.297,7.521-14.099c0-3.102-0.188-5.828-0.471-7.99c-2.351,0-4.229-0.47-4.981-1.504
		c-1.41-1.786,0.094-5.169,1.41-5.64c2.538-0.94,6.392,0.564,7.332,5.452c2.066-0.282,3.946-0.752,6.391-1.598
		C352.692,55.836,352.034,57.81,350.343,58.468z M340.567,58.28c-0.471-2.35-1.881-4.23-2.633-3.572
		c-0.939,0.658-0.752,2.256-0.188,2.914C338.123,57.999,338.969,58.28,340.567,58.28z"/>
	<path fill="#817870" d="M381.549,60.63c-1.598,4.981-5.076,7.896-8.646,8.835c-1.786,9.775-9.023,13.725-13.535,13.725
		c-5.733,0-10.435-8.365-10.435-28.198c0-3.948,0.188-8.178,0.564-12.313c-5.264,3.29-10.997,5.452-16.919,5.452
		c-5.264,0-6.58-1.128-6.109-1.88c0.281-0.564,3.008,0,5.451,0c6.392,0,12.501-2.256,17.859-5.828
		c2.256-20.491,10.901-40.417,20.396-40.417c13.159,0,2.727,26.882-15.51,40.511c-0.563,4.982-0.846,9.87-0.846,14.1
		c0,18.327,1.786,26.225,6.108,26.225c3.104,0,6.204-4.042,7.521-11.186c-2.537-0.188-4.888-1.504-6.392-3.76
		c-4.605-7.238-1.033-15.697,4.136-15.697c3.103,0,8.271,4.981,8.271,12.031c0,2.162-0.094,4.042-0.375,5.733
		c2.913-0.846,5.545-3.384,7.049-7.707C380.891,57.904,382.583,57.528,381.549,60.63z M354.948,38.072
		c16.167-12.596,24.721-35.437,15.228-35.437C362.374,2.636,357.11,20.964,354.948,38.072z M367.638,68.244
		c0.282-1.786,0.471-3.76,0.471-5.922c0-16.449-11.655-8.459-5.171,2.538C363.972,66.833,365.758,67.961,367.638,68.244z"/>
	<path fill="#817870" d="M391.513,65.518c-1.974,11.091-4.794,18.61-9.493,18.61c-4.136,0-7.237-7.144-7.237-11.562
		c0-5.357,0.471-16.542,0.658-18.986c0.188-1.034,6.392-0.658,6.298,0.282c-0.94,3.854-2.444,13.347-2.444,18.986
		c0,3.948-0.094,9.117,3.008,9.117c3.29,0,6.11-5.921,7.99-16.637C390.572,63.638,391.795,63.732,391.513,65.518z M376.662,41.643
		c0-1.691,3.008-4.699,4.041-4.699c0.939,0,2.162,1.786,2.162,3.008c0,1.222-2.162,4.136-3.195,4.136
		C378.918,44.087,376.662,43.053,376.662,41.643z"/>
	<path fill="#817870" d="M418.018,74.354c-1.69,8.93-4.135,14.287-8.083,14.287c-4.604,0-8.74-9.494-6.578-23.123
		c1.598-10.434,1.784-12.313,0.656-12.313c-1.974,0-4.98,6.298-8.646,19.081c-0.563,1.974-0.752,4.136-0.752,5.45
		c0,3.572-0.188,5.828-1.88,5.828c-2.067,0-3.479-0.939-3.479-1.785c0-4.229,0.752-28.386,0.752-29.514s6.393-0.846,6.203,0.282
		c-0.188,1.88-1.974,12.031-1.974,15.604c0,0.846,0.376,2.443,0.847,0.846c3.665-13.723,6.673-17.953,9.587-17.953
		c3.008,0,6.016,3.008,4.136,14.193c-2.35,13.441-1.222,21.242,1.599,21.242c2.538,0,4.604-3.854,6.298-12.03
		C416.984,72.85,418.3,72.755,418.018,74.354z"/>
	<path fill="#817870" d="M437.193,78.207c-1.691-0.846-3.289-1.598-5.075-2.066c-1.88,7.801-9.964,9.022-13.065,7.144
		c-3.76-2.443-2.162-8.365,3.76-9.306c1.691-0.283,3.103-0.283,4.513-0.188c0.282-5.64-4.042-10.998-7.426-15.791
		c-0.753,4.605-2.351,12.125-3.385,15.509c-0.752,2.443-1.88,0.939-1.314-0.939c1.033-3.479,2.818-12.219,3.478-16.448v-0.094
		c-1.504-2.256-2.538-4.417-2.632-6.392c-0.094-2.162,1.128-4.136,2.538-4.793c2.256-1.034,6.203-0.752,5.357,3.195l-1.41,5.64
		c2.632,4.888,11.186,10.81,9.964,20.397c0,0.188-0.094,0.28-0.094,0.47c1.784,0.562,3.57,1.409,5.356,2.35
		C438.979,77.455,438.791,78.958,437.193,78.207z M427.137,75.576c-1.504-0.188-3.103-0.188-4.794,0.094
		c-2.632,0.376-4.794,4.137-2.351,6.016C421.967,83.283,426.008,81.591,427.137,75.576z"/>
	<path fill="#817870" d="M460.881,58.468c-1.88,0.658-3.384,1.128-5.452,1.316c0.282,1.974,0.376,4.512,0.376,7.425
		c0,8.646-6.484,16.919-12.03,16.919c-7.05,0-10.34-5.827-9.683-13.347c0.658-8.178,4.324-13.817,8.931-14.757
		c1.504-0.376,1.315,0.94,0.281,1.504c-1.128,0.564-3.008,4.7-3.76,13.253c-0.562,6.673,1.504,11.091,4.794,11.091
		c3.479,0,7.521-6.297,7.521-14.099c0-3.102-0.188-5.828-0.472-7.99c-2.35,0-4.229-0.47-4.98-1.504
		c-1.409-1.786,0.095-5.169,1.41-5.64c2.537-0.94,6.392,0.564,7.331,5.452c2.067-0.282,3.947-0.752,6.393-1.598
		C463.23,55.836,462.572,57.81,460.881,58.468z M451.105,58.28c-0.472-2.35-1.881-4.23-2.633-3.572
		c-0.939,0.658-0.752,2.256-0.188,2.914C448.661,57.999,449.508,58.28,451.105,58.28z"/>
	<path fill="#817870" d="M487.764,74.354c-1.691,8.93-4.137,14.287-8.084,14.287c-4.604,0-8.74-9.494-6.58-23.123
		c1.6-10.434,1.786-12.313,0.658-12.313c-1.974,0-4.98,6.298-8.646,19.081c-0.563,1.974-0.752,4.136-0.752,5.45
		c0,3.572-0.188,5.828-1.881,5.828c-2.066,0-3.478-0.939-3.478-1.785c0-4.229,0.752-28.386,0.752-29.514s6.392-0.846,6.204,0.282
		c-0.188,1.88-1.975,12.031-1.975,15.604c0,0.846,0.376,2.443,0.846,0.846c3.666-13.723,6.674-17.953,9.588-17.953
		c3.008,0,6.016,3.008,4.136,14.193c-2.35,13.441-1.222,21.242,1.599,21.242c2.537,0,4.605-3.854,6.298-12.03
		C486.729,72.85,488.045,72.755,487.764,74.354z"/>
</g>
<g>
	<path fill="#817870" d="M111.404,121.686c0,1.094-0.163,2.075-0.49,2.948c-0.327,0.874-0.787,1.617-1.38,2.23
		c-0.594,0.612-1.304,1.084-2.13,1.409c-0.826,0.326-1.743,0.49-2.75,0.49h-5.16v-14.149h5.16c1.007,0,1.923,0.163,2.75,0.489
		c0.827,0.326,1.537,0.797,2.13,1.41c0.593,0.613,1.053,1.356,1.38,2.229C111.241,119.619,111.404,120.598,111.404,121.686z
		 M110.344,121.686c0-0.986-0.137-1.867-0.41-2.642s-0.659-1.426-1.155-1.96c-0.497-0.533-1.095-0.939-1.795-1.22
		c-0.7-0.28-1.477-0.421-2.33-0.421h-4.13v12.49h4.13c0.854,0,1.63-0.141,2.33-0.42c0.7-0.279,1.298-0.688,1.795-1.221
		c0.497-0.533,0.882-1.188,1.155-1.96C110.208,123.562,110.344,122.678,110.344,121.686z"/>
	<path fill="#817870" d="M124.174,114.615v0.85h-7.45v5.721h6.2v0.83h-6.2v5.899h7.45v0.851h-8.48v-14.149L124.174,114.615
		L124.174,114.615z"/>
	<path fill="#817870" d="M135.364,116.334c-0.06,0.114-0.147,0.171-0.26,0.171c-0.087,0-0.199-0.062-0.336-0.187
		c-0.137-0.123-0.323-0.26-0.557-0.409c-0.234-0.15-0.526-0.288-0.877-0.415c-0.351-0.126-0.784-0.189-1.299-0.189
		c-0.515,0-0.968,0.073-1.359,0.221c-0.391,0.146-0.719,0.347-0.983,0.6c-0.264,0.254-0.465,0.547-0.602,0.881
		c-0.137,0.332-0.206,0.684-0.206,1.049c0,0.48,0.102,0.877,0.305,1.19s0.472,0.58,0.806,0.8c0.334,0.221,0.713,0.405,1.137,0.555
		c0.424,0.15,0.859,0.299,1.307,0.445c0.448,0.146,0.883,0.309,1.307,0.485s0.803,0.397,1.137,0.665
		c0.334,0.267,0.603,0.595,0.806,0.984c0.204,0.391,0.306,0.875,0.306,1.454c0,0.595-0.102,1.152-0.305,1.677
		c-0.203,0.522-0.499,0.979-0.885,1.364c-0.387,0.388-0.86,0.691-1.42,0.914c-0.56,0.224-1.2,0.336-1.92,0.336
		c-0.933,0-1.736-0.166-2.41-0.495c-0.674-0.33-1.264-0.781-1.77-1.354l0.28-0.44c0.08-0.1,0.173-0.148,0.28-0.148
		c0.06,0,0.137,0.039,0.23,0.119c0.094,0.08,0.207,0.179,0.341,0.295c0.133,0.117,0.293,0.244,0.48,0.381s0.404,0.263,0.651,0.38
		c0.247,0.116,0.531,0.215,0.851,0.295c0.32,0.08,0.685,0.12,1.092,0.12c0.561,0,1.062-0.085,1.502-0.256
		c0.44-0.17,0.813-0.401,1.117-0.694c0.304-0.293,0.536-0.642,0.696-1.045c0.16-0.403,0.24-0.835,0.24-1.295
		c0-0.5-0.102-0.912-0.305-1.234c-0.204-0.323-0.473-0.594-0.807-0.811c-0.333-0.218-0.712-0.398-1.136-0.546
		c-0.424-0.146-0.86-0.289-1.307-0.43c-0.448-0.141-0.883-0.297-1.307-0.471c-0.424-0.173-0.803-0.395-1.137-0.664
		c-0.333-0.271-0.603-0.607-0.806-1.011c-0.203-0.404-0.305-0.908-0.305-1.515c0-0.475,0.09-0.931,0.271-1.371
		c0.18-0.439,0.444-0.828,0.791-1.164c0.347-0.338,0.776-0.607,1.287-0.812c0.511-0.204,1.093-0.305,1.748-0.305
		c0.734,0,1.394,0.116,1.978,0.351c0.584,0.233,1.116,0.59,1.597,1.069L135.364,116.334z"/>
	<path fill="#817870" d="M141.363,128.766h-1.03v-14.15h1.03V128.766z"/>
	<path fill="#817870" d="M153.023,128.095c0.486,0,0.93-0.024,1.33-0.075c0.4-0.05,0.772-0.125,1.115-0.226
		c0.343-0.101,0.67-0.221,0.98-0.364c0.31-0.144,0.622-0.306,0.935-0.484v-3.812h-2.72c-0.073,0-0.135-0.022-0.185-0.069
		s-0.075-0.101-0.075-0.159v-0.56h3.91v5.028c-0.354,0.247-0.72,0.467-1.1,0.66c-0.38,0.192-0.787,0.354-1.22,0.483
		c-0.433,0.131-0.9,0.23-1.4,0.301c-0.5,0.072-1.047,0.105-1.64,0.105c-1.02,0-1.952-0.172-2.795-0.516
		c-0.843-0.344-1.567-0.83-2.17-1.46c-0.604-0.63-1.072-1.392-1.405-2.285s-0.5-1.886-0.5-2.979c0-1.093,0.167-2.086,0.5-2.976
		s0.806-1.649,1.42-2.28c0.613-0.629,1.358-1.115,2.235-1.459c0.876-0.344,1.858-0.516,2.945-0.516c0.54,0,1.039,0.037,1.495,0.109
		c0.457,0.073,0.882,0.183,1.275,0.326c0.394,0.143,0.76,0.318,1.1,0.528c0.34,0.211,0.667,0.452,0.98,0.726l-0.27,0.439
		c-0.06,0.102-0.144,0.15-0.25,0.15c-0.06,0-0.117-0.015-0.17-0.041c-0.1-0.039-0.245-0.133-0.435-0.279
		c-0.19-0.146-0.447-0.301-0.77-0.46c-0.323-0.16-0.729-0.304-1.215-0.431c-0.487-0.127-1.077-0.189-1.77-0.189
		c-0.92,0-1.75,0.146-2.49,0.439c-0.74,0.293-1.372,0.713-1.895,1.261c-0.523,0.547-0.927,1.213-1.21,2
		c-0.283,0.786-0.425,1.67-0.425,2.649c0,1,0.143,1.896,0.43,2.689c0.286,0.793,0.688,1.465,1.205,2.016
		c0.517,0.549,1.137,0.971,1.86,1.266C151.352,127.949,152.15,128.095,153.023,128.095z"/>
	<path fill="#817870" d="M163.633,114.65c0.053,0.022,0.11,0.074,0.17,0.154l9.16,12.26c-0.02-0.199-0.03-0.394-0.03-0.58v-11.869
		h0.9v14.15h-0.49c-0.153,0-0.276-0.066-0.37-0.201l-9.2-12.279c0.02,0.199,0.03,0.391,0.03,0.57v11.91h-0.89v-14.15h0.5
		C163.506,114.615,163.58,114.626,163.633,114.65z"/>
	<path fill="#817870" d="M187.513,114.615v0.85h-7.45v5.721h6.2v0.83h-6.2v5.899h7.45v0.851h-8.48v-14.149L187.513,114.615
		L187.513,114.615z"/>
	<path fill="#817870" d="M193.173,122.365v6.4h-1.02v-14.15h3.61c1.633,0,2.854,0.314,3.66,0.945c0.807,0.629,1.21,1.555,1.21,2.773
		c0,0.54-0.093,1.034-0.28,1.479c-0.187,0.447-0.455,0.84-0.805,1.177c-0.35,0.336-0.771,0.612-1.265,0.829
		c-0.493,0.218-1.05,0.358-1.67,0.426c0.16,0.101,0.303,0.232,0.43,0.398l4.87,6.121h-0.89c-0.107,0-0.198-0.021-0.275-0.061
		s-0.152-0.105-0.225-0.199l-4.53-5.74c-0.114-0.146-0.235-0.25-0.365-0.311s-0.332-0.09-0.605-0.09h-1.85V122.365z
		 M193.173,121.605h2.46c0.626,0,1.188-0.075,1.685-0.226c0.497-0.149,0.917-0.364,1.26-0.646c0.343-0.28,0.605-0.616,0.785-1.012
		c0.18-0.393,0.27-0.836,0.27-1.33c0-1.006-0.33-1.752-0.99-2.238c-0.66-0.487-1.62-0.729-2.88-0.729h-2.59V121.605z"/>
	<path fill="#817870" d="M211.093,122.805c0-0.406,0.077-0.789,0.23-1.149c0.153-0.36,0.363-0.675,0.63-0.945
		c0.266-0.271,0.576-0.481,0.93-0.635c0.354-0.154,0.73-0.229,1.13-0.229c0.407,0,0.79,0.076,1.15,0.229s0.673,0.364,0.94,0.635
		s0.477,0.585,0.63,0.945c0.153,0.36,0.23,0.743,0.23,1.149c0,0.399-0.077,0.774-0.23,1.125c-0.153,0.351-0.363,0.657-0.63,0.926
		c-0.267,0.267-0.58,0.477-0.94,0.629c-0.36,0.154-0.744,0.229-1.15,0.229c-0.4,0-0.776-0.075-1.13-0.229
		c-0.354-0.152-0.664-0.362-0.93-0.629c-0.267-0.269-0.477-0.575-0.63-0.926C211.169,123.58,211.093,123.205,211.093,122.805z"/>
	<path fill="#817870" d="M238.072,126.384c0.067,0,0.124,0.023,0.17,0.07l0.4,0.43c-0.293,0.314-0.614,0.597-0.96,0.847
		c-0.347,0.25-0.725,0.463-1.135,0.64c-0.41,0.177-0.86,0.313-1.35,0.41c-0.49,0.097-1.028,0.146-1.615,0.146
		c-0.98,0-1.878-0.172-2.695-0.516c-0.816-0.344-1.517-0.83-2.1-1.46s-1.039-1.392-1.365-2.285c-0.326-0.894-0.49-1.886-0.49-2.979
		c0-1.074,0.168-2.054,0.505-2.939c0.336-0.887,0.81-1.648,1.42-2.285c0.61-0.636,1.34-1.13,2.19-1.479
		c0.85-0.35,1.788-0.525,2.815-0.525c0.513,0,0.983,0.039,1.41,0.115c0.426,0.076,0.825,0.187,1.195,0.33
		c0.37,0.143,0.718,0.32,1.045,0.535c0.327,0.213,0.647,0.459,0.96,0.739l-0.31,0.449c-0.054,0.08-0.137,0.12-0.25,0.12
		c-0.06,0-0.137-0.035-0.23-0.104c-0.094-0.07-0.212-0.158-0.355-0.261c-0.143-0.104-0.316-0.217-0.52-0.341
		c-0.204-0.123-0.445-0.236-0.725-0.34c-0.28-0.104-0.604-0.19-0.97-0.262c-0.367-0.068-0.783-0.104-1.25-0.104
		c-0.86,0-1.65,0.148-2.37,0.445c-0.72,0.296-1.34,0.72-1.86,1.271c-0.52,0.55-0.925,1.218-1.215,2
		c-0.29,0.783-0.435,1.661-0.435,2.636c0,1,0.143,1.893,0.43,2.68c0.286,0.787,0.683,1.451,1.19,1.994
		c0.506,0.545,1.105,0.961,1.795,1.25c0.69,0.291,1.438,0.436,2.245,0.436c0.506,0,0.958-0.033,1.355-0.1
		c0.396-0.066,0.761-0.166,1.095-0.301c0.333-0.133,0.644-0.297,0.93-0.489c0.286-0.193,0.57-0.421,0.85-0.681
		c0.033-0.025,0.065-0.049,0.095-0.064C237.998,126.393,238.032,126.384,238.072,126.384z"/>
	<path fill="#817870" d="M244.182,122.365v6.4h-1.02v-14.15h3.61c1.633,0,2.854,0.314,3.66,0.945c0.807,0.629,1.21,1.555,1.21,2.773
		c0,0.54-0.095,1.034-0.281,1.479c-0.187,0.447-0.454,0.84-0.804,1.177c-0.35,0.336-0.771,0.612-1.265,0.829
		c-0.493,0.218-1.05,0.358-1.67,0.426c0.16,0.101,0.303,0.232,0.43,0.398l4.87,6.121h-0.891c-0.105,0-0.197-0.021-0.273-0.061
		s-0.152-0.105-0.226-0.199l-4.53-5.74c-0.114-0.146-0.235-0.25-0.365-0.311c-0.13-0.061-0.332-0.09-0.605-0.09h-1.85V122.365z
		 M244.182,121.605h2.46c0.626,0,1.188-0.075,1.685-0.226c0.497-0.149,0.917-0.364,1.26-0.646c0.343-0.28,0.605-0.616,0.785-1.012
		c0.18-0.393,0.27-0.836,0.27-1.33c0-1.006-0.33-1.752-0.99-2.238c-0.66-0.487-1.62-0.729-2.88-0.729h-2.59V121.605z"/>
	<path fill="#817870" d="M264.963,114.615v0.85h-7.449v5.721h6.199v0.83h-6.199v5.899h7.449v0.851h-8.48v-14.149L264.963,114.615
		L264.963,114.615z"/>
	<path fill="#817870" d="M279.952,128.766h-0.79c-0.094,0-0.17-0.025-0.229-0.076c-0.062-0.049-0.107-0.114-0.142-0.194l-1.67-4.11
		h-6.95l-1.66,4.11c-0.025,0.073-0.072,0.137-0.14,0.19c-0.065,0.053-0.146,0.08-0.24,0.08h-0.778l5.789-14.15h1.021
		L279.952,128.766z M270.482,123.625h6.34l-2.891-7.15c-0.047-0.113-0.094-0.24-0.141-0.385c-0.047-0.143-0.094-0.295-0.141-0.455
		c-0.047,0.16-0.094,0.312-0.141,0.455c-0.046,0.145-0.093,0.275-0.14,0.396L270.482,123.625z"/>
	<path fill="#817870" d="M291.281,114.615v0.869h-4.971v13.281h-1.021v-13.281h-5v-0.869H291.281z"/>
	<path fill="#817870" d="M296.131,128.766h-1.029v-14.15h1.029V128.766z"/>
	<path fill="#817870" d="M299.762,114.615h0.811c0.094,0,0.17,0.025,0.229,0.074c0.06,0.051,0.106,0.115,0.14,0.194l4.82,11.74
		c0.127,0.308,0.229,0.634,0.311,0.979c0.072-0.359,0.17-0.688,0.29-0.979l4.81-11.74c0.034-0.071,0.082-0.137,0.146-0.188
		c0.063-0.053,0.142-0.08,0.234-0.08h0.8l-5.84,14.15h-0.909L299.762,114.615z"/>
	<path fill="#817870" d="M324.08,114.615v0.85h-7.45v5.721h6.2v0.83h-6.2v5.899h7.45v0.851h-8.48v-14.149L324.08,114.615
		L324.08,114.615z"/>
	<path fill="#817870" d="M334.04,122.805c0-0.406,0.076-0.789,0.229-1.149c0.153-0.36,0.363-0.675,0.631-0.945
		c0.267-0.271,0.576-0.481,0.931-0.635c0.353-0.153,0.729-0.229,1.13-0.229c0.406,0,0.79,0.076,1.149,0.229s0.674,0.364,0.939,0.635
		c0.267,0.271,0.478,0.585,0.63,0.945c0.153,0.36,0.23,0.743,0.23,1.149c0,0.399-0.077,0.774-0.23,1.125
		c-0.152,0.351-0.362,0.657-0.63,0.926c-0.267,0.267-0.58,0.477-0.939,0.629c-0.359,0.154-0.743,0.229-1.149,0.229
		c-0.4,0-0.777-0.075-1.13-0.229c-0.354-0.152-0.664-0.362-0.931-0.629c-0.268-0.269-0.478-0.575-0.631-0.926
		C334.116,123.58,334.04,123.205,334.04,122.805z"/>
	<path fill="#817870" d="M356.818,128.095c0.486,0,0.931-0.024,1.33-0.075c0.399-0.05,0.771-0.125,1.114-0.226
		c0.345-0.101,0.67-0.221,0.98-0.364c0.31-0.144,0.621-0.306,0.935-0.484v-3.812h-2.72c-0.074,0-0.136-0.022-0.187-0.069
		c-0.05-0.047-0.074-0.101-0.074-0.159v-0.56h3.91v5.028c-0.354,0.247-0.721,0.467-1.101,0.66c-0.38,0.192-0.787,0.354-1.22,0.483
		c-0.435,0.131-0.9,0.23-1.4,0.301c-0.5,0.072-1.047,0.105-1.64,0.105c-1.021,0-1.952-0.172-2.795-0.516
		c-0.844-0.344-1.567-0.83-2.171-1.46s-1.071-1.392-1.404-2.285c-0.334-0.894-0.5-1.886-0.5-2.979c0-1.093,0.166-2.086,0.5-2.976
		c0.333-0.89,0.807-1.649,1.42-2.28c0.613-0.629,1.358-1.115,2.234-1.459c0.877-0.344,1.857-0.516,2.944-0.516
		c0.54,0,1.038,0.037,1.495,0.109c0.457,0.073,0.882,0.183,1.275,0.326c0.393,0.143,0.76,0.318,1.1,0.528
		c0.34,0.211,0.667,0.452,0.98,0.726l-0.271,0.439c-0.06,0.102-0.144,0.15-0.25,0.15c-0.06,0-0.115-0.015-0.17-0.041
		c-0.1-0.039-0.245-0.133-0.435-0.279c-0.19-0.146-0.447-0.301-0.771-0.46c-0.323-0.16-0.729-0.304-1.215-0.431
		s-1.077-0.189-1.771-0.189c-0.92,0-1.75,0.146-2.489,0.439c-0.74,0.293-1.372,0.713-1.896,1.261c-0.523,0.547-0.927,1.213-1.21,2
		c-0.282,0.786-0.425,1.67-0.425,2.649c0,1,0.145,1.896,0.43,2.689c0.287,0.793,0.688,1.465,1.205,2.016
		c0.518,0.549,1.138,0.971,1.86,1.266C355.146,127.949,355.945,128.095,356.818,128.095z"/>
	<path fill="#817870" d="M375.189,114.615v0.85h-7.45v5.721h6.2v0.83h-6.2v5.899h7.45v0.851h-8.48v-14.149L375.189,114.615
		L375.189,114.615z"/>
	<path fill="#817870" d="M388.008,114.615v0.85h-7.45v5.721h6.2v0.83h-6.2v5.899h7.45v0.851h-8.479v-14.149L388.008,114.615
		L388.008,114.615z"/>
	<path fill="#817870" d="M393.668,121.145h0.84c0.127,0,0.236-0.004,0.33-0.015s0.179-0.03,0.255-0.062
		c0.077-0.029,0.148-0.067,0.215-0.114c0.067-0.047,0.138-0.106,0.21-0.181l5.711-5.869c0.106-0.106,0.204-0.182,0.296-0.227
		c0.09-0.043,0.2-0.063,0.335-0.063h0.83l-6.182,6.35c-0.127,0.134-0.238,0.236-0.335,0.312c-0.097,0.072-0.205,0.133-0.325,0.18
		c0.142,0.04,0.267,0.102,0.375,0.186c0.11,0.084,0.223,0.191,0.335,0.324l6.521,6.801h-0.83c-0.174,0-0.297-0.024-0.37-0.076
		c-0.073-0.049-0.148-0.113-0.229-0.193l-5.99-6.12c-0.073-0.073-0.142-0.137-0.2-0.188c-0.06-0.055-0.128-0.1-0.205-0.136
		c-0.076-0.036-0.168-0.063-0.273-0.079c-0.107-0.019-0.24-0.025-0.4-0.025h-0.91v6.82h-1.02v-14.17h1.02v6.547H393.668z"/>
</g>
</svg>
